<svg width="80" height="80" viewBox="0 0 80 80" fill="none" xmlns="http://www.w3.org/2000/svg">
  <circle cx="40" cy="40" r="40" fill="#3498db" fill-opacity="0.1"/>
  <circle cx="40" cy="40" r="32" fill="#3498db" fill-opacity="0.2"/>
  
  <!-- Building icon -->
  <rect x="25" y="20" width="30" height="40" fill="#3498db" rx="2"/>
  <rect x="28" y="25" width="4" height="4" fill="white" rx="1"/>
  <rect x="34" y="25" width="4" height="4" fill="white" rx="1"/>
  <rect x="42" y="25" width="4" height="4" fill="white" rx="1"/>
  <rect x="48" y="25" width="4" height="4" fill="white" rx="1"/>
  
  <rect x="28" y="32" width="4" height="4" fill="white" rx="1"/>
  <rect x="34" y="32" width="4" height="4" fill="white" rx="1"/>
  <rect x="42" y="32" width="4" height="4" fill="white" rx="1"/>
  <rect x="48" y="32" width="4" height="4" fill="white" rx="1"/>
  
  <rect x="28" y="39" width="4" height="4" fill="white" rx="1"/>
  <rect x="34" y="39" width="4" height="4" fill="white" rx="1"/>
  <rect x="42" y="39" width="4" height="4" fill="white" rx="1"/>
  <rect x="48" y="39" width="4" height="4" fill="white" rx="1"/>
  
  <rect x="28" y="46" width="4" height="4" fill="white" rx="1"/>
  <rect x="34" y="46" width="4" height="4" fill="white" rx="1"/>
  <rect x="42" y="46" width="4" height="4" fill="white" rx="1"/>
  <rect x="48" y="46" width="4" height="4" fill="white" rx="1"/>
  
  <!-- Door -->
  <rect x="36" y="50" width="8" height="10" fill="white" rx="1"/>
  <circle cx="42" cy="55" r="1" fill="#3498db"/>
</svg> 